# xmcd
#
# Track frame offsets: 
#        187
#        13237
#        29697
#        51810
#        63437
#        78525
#        95080
#        108982
#        122057
#        136165
#
# Disc length: 2013 seconds
#
# Revision: 1
# Processed by: cddbd v1.5.2PL0 Copyright (c) Steve Scherf et al.
# Submitted via: ExactAudioCopyFreeDBPlugin 1.0
#
DISCID=8907db0a
DTITLE=Various Artist - Country Classics Vol. 12
DYEAR=1988
DGENRE=Country
TTITLE0=Strait, George - It Ain't Cool to Be Crazy About You
TTITLE1=McEntire, Reba - Love Will Find Its Way To You
TTITLE2=Conway Twitty - That's My Job
TTITLE3=Jennings, Waylon - My Rough And Rowdy Days
TTITLE4=Campbell, Glen - I Have You
TTITLE5=Wariner, Steve - Baby I'm Yours
TTITLE6=Loveless, Patsy - If My Heart Had Windows
TTITLE7=Greenwood, Lee - Touch And Go Crazy
TTITLE8=Ewing, Skip - You Memory Wins Again
TTITLE9=Griffith, Nanci - I Knew Love
EXTD=YEAR: 1988
EXTT0=
EXTT1=
EXTT2=
EXTT3=
EXTT4=
EXTT5=
EXTT6=
EXTT7=
EXTT8=
EXTT9=
PLAYORDER=
